<svg xmlns="http://www.w3.org/2000/svg" viewBox="0 0 600 600"><path d="M-.395 222.042c11.757-14.07 26.984-10.986 52.04-25.442 25.058-14.456 51.656-47.03 98.3-61.293 46.645-14.263 124.514-27.37 181.566-24.286 57.053 3.084 114.298 36.43 160.75 42.79 46.45 6.36 95.408-27.755 117.959-4.626 22.551 23.13 17.54 102.926 17.347 143.402-.193 40.476 1.35 80.567-18.503 99.456-19.853 18.89-64.763 9.638-100.613 13.878-35.85 4.24-87.314 6.36-114.49 11.565-27.178 5.204-31.996 9.637-48.572 19.66-16.576 10.022-25.057 31.802-50.885 40.476s-76.134 12.914-104.082 11.565c-27.948-1.35-42.79-12.529-63.606-19.66-20.816-7.132-43.56-14.07-61.293-23.13-17.732-9.059-31.417-27.755-45.102-31.224-13.685-3.47-28.912 21.009-37.007 10.408-8.095-10.601-11.18-49.921-11.565-74.014-.385-24.093 4.626-48.957 9.252-70.545 4.626-21.587 6.746-44.91 18.504-58.98 11.757-14.07 26.984-10.986 52.04-25.442" fill="hsl(340, 45%, 50%)"/></svg>