<svg xmlns="http://www.w3.org/2000/svg" version="1.1" xmlns:xlink="http://www.w3.org/1999/xlink" xmlns:svgjs="http://svgjs.dev/svgjs" viewBox="0 0 600 600"><path d="M27.797203063964844,267.4825134277344C38.461538791656494,254.72027333577475,52.27272669474284,257.5174814860026,75,244.4055938720703C97.72727330525716,231.29370625813803,121.8531494140625,201.74825032552084,164.1608428955078,188.81118774414062C206.46853637695312,175.8741251627604,277.09790802001953,163.98601531982422,328.8461608886719,166.78321838378906C380.5944137573242,169.5804214477539,432.5174916585286,199.8251749674479,474.6503601074219,205.5944061279297C516.7832285563151,211.36363728841147,561.1888275146484,180.41958363850912,581.6433715820312,201.3986053466797C602.0979156494141,222.37762705485025,597.5524495442709,294.75525156656903,597.3776245117188,331.4685363769531C597.2027994791666,368.1818211873372,598.6014149983724,404.5454457600911,580.5944213867188,421.6783142089844C562.5874277750651,438.8111826578776,521.8531494140625,430.4195912679036,489.3356628417969,434.2657470703125C456.81817626953125,438.1119028727214,410.1398518880208,440.03497314453125,385.489501953125,444.7552490234375C360.8391520182292,449.47552490234375,356.46852620442706,453.4964955647786,341.4335632324219,462.58740234375C326.3986002604167,471.6783091227214,318.70629628499347,491.4335530598958,295.27972412109375,499.3006896972656C271.85315195719403,507.16782633463544,226.2237803141276,511.0139973958333,200.87413024902344,509.79022216796875C175.52448018391928,508.5664469401042,162.06294377644858,498.42656962076825,143.18182373046875,491.9580383300781C124.30070368448894,485.489507039388,103.6713269551595,479.19581604003906,87.58740997314453,470.9790344238281C71.50349299112956,462.7622528076172,59.09090884526571,445.804204305013,46.678321838378906,442.6573486328125C34.265734831492104,439.510492960612,20.45454529921214,461.7132873535156,13.11188793182373,452.097900390625C5.769230564435323,442.4825134277344,2.9720280170440674,406.81817118326825,2.622377634048462,384.96502685546875C2.2727272510528564,363.11188252766925,6.818181395530701,340.5594533284505,11.013985633850098,320.9790344238281C15.209789872169495,301.39861551920575,17.132867336273193,280.24475351969403,27.797203063964844,267.4825134277344C38.461538791656494,254.72027333577475,52.27272669474284,257.5174814860026,75,244.4055938720703" fill="hsl(340, 45%, 50%)" transform="matrix(1.1025,0,0,1.1025,-31.041782262325285,-72.85701793670654)" stroke-width="0" stroke="hsl(340, 45%, 30%)"></path></svg>